PathFileType        4      (X/Y/Z)      C:\Users\pc\Desktop\IMUTRC\Sujet_06\Sujet_06_velo_80.trc         
DataRate	CameraRate	NumFrames	NumMarkers	Units	OrigDataRate	OrigDataStartFrame	OrigNumFrames
60.0	60.0	4	64	mm	60.0	830	948
Frame#	Time	pHipOrigin			pRightASI			pLeftASI			pRightCSI			pLeftCSI			pRightIschialTub			pLeftIschialTub			pSacrum			pL5SpinalProcess			pL3SpinalProcess			pT12SpinalProcess			pIJ			pT4SpinalProcess			pT8SpinalProcess			pPX			pC7SpinalProcess			pTopOfHead			pRightAuricularis			pLeftAuricularis			pBackOfHead			pRightAcromion			pLeftAcromion			pRightArmLatEpicondyle			pRightArmMedEpicondyle			pLeftArmLatEpicondyle			pLeftArmMedEpicondyle			pRightUlnarStyloid			pRightRadialStyloid			pRightOlecranon			pLeftUlnarStyloid			pLeftRadialStyloid			pLeftOlecranon			pRightTopOfHand			pRightPinky			pRightBallHand			pLeftTopOfHand			pLeftPinky			pLeftBallHand			pRightGreaterTrochanter			pRightKneeLatEpicondyle			pRightKneeMedEpicondyle			pRightPatella			pLeftGreaterTrochanter			pLeftKneeLatEpicondyle			pLeftKneeMedEpicondyle			pLeftPatella			pRightTibialTub			pRightLatMalleolus			pRightMedMalleolus			pLeftTibialTub			pLeftLatMalleolus			pLeftMedMalleolus			pRightHeelFoot			pRightFirstMetatarsal			pRightFifthMetatarsal			pRightPivotFoot			pRightHeelCenter			pRightToe			pLeftHeelFoot			pLeftFirstMetatarsal			pLeftFifthMetatarsal			pLeftPivotFoot			pLeftHeelCenter			pLeftToe			
		X1	Y1	Z1	X2	Y2	Z2	X3	Y3	Z3	X4	Y4	Z4	X5	Y5	Z5	X6	Y6	Z6	X7	Y7	Z7	X8	Y8	Z8	X9	Y9	Z9	X10	Y10	Z10	X11	Y11	Z11	X12	Y12	Z12	X13	Y13	Z13	X14	Y14	Z14	X15	Y15	Z15	X16	Y16	Z16	X17	Y17	Z17	X18	Y18	Z18	X19	Y19	Z19	X20	Y20	Z20	X21	Y21	Z21	X22	Y22	Z22	X23	Y23	Z23	X24	Y24	Z24	X25	Y25	Z25	X26	Y26	Z26	X27	Y27	Z27	X28	Y28	Z28	X29	Y29	Z29	X30	Y30	Z30	X31	Y31	Z31	X32	Y32	Z32	X33	Y33	Z33	X34	Y34	Z34	X35	Y35	Z35	X36	Y36	Z36	X37	Y37	Z37	X38	Y38	Z38	X39	Y39	Z39	X40	Y40	Z40	X41	Y41	Z41	X42	Y42	Z42	X43	Y43	Z43	X44	Y44	Z44	X45	Y45	Z45	X46	Y46	Z46	X47	Y47	Z47	X48	Y48	Z48	X49	Y49	Z49	X50	Y50	Z50	X51	Y51	Z51	X52	Y52	Z52	X53	Y53	Z53	X54	Y54	Z54	X55	Y55	Z55	X56	Y56	Z56	X57	Y57	Z57	X58	Y58	Z58	X59	Y59	Z59	X60	Y60	Z60	X61	Y61	Z61	X62	Y62	Z62	X63	Y63	Z63	X64	Y64	Z64	
830	13.817	0.0	1250.06673	7.654451098075493E-14	32.94644000000002	1328.83991	129.8876300000001	84.60320999999999	1339.82206	-94.63628999999993	0.5423300000000131	1389.30952	106.70309000000009	43.92858999999999	1398.5291	-82.43389999999991	-59.384949999999996	1199.90136	33.75994000000008	-37.556230000000006	1204.51115	-60.74076999999992	-56.40214	1270.40404	-11.931219999999914	-25.08268	1360.56612	-1.0846599999999136	19.79498	1470.52318	10.168660000000088	62.91008	1570.44717	19.117070000000087	304.51734	1660.60925	71.72292000000006	173.81622	1733.95915	39.183220000000084	116.05826	1664.26996	28.74340000000009	229.40487	1562.17666	58.571460000000066	215.71108	1781.14171	47.996050000000075	493.11201	1825.07031	44.199760000000055	397.93339	1802.15693	125.14225000000008	386.00217	1799.30971	-18.981489999999937	378.68073	1855.98302	53.01259000000007	189.40816000000004	1751.7204	226.55765000000008	260.04642	1745.21246	-125.14224999999992	339.7686800000001	1494.65679	232.52326000000005	333.26074	1489.50467	170.01992000000007	425.32097	1503.46962	-145.07281999999998	395.89966	1476.48879	-96.26326999999996	500.4334400000001	1298.19836	244.31890000000004	533.2443	1327.48409	216.52457000000004	317.80438	1480.28509	217.20248000000007	627.06709	1351.48212	-136.80231	633.98178	1367.07406	-87.72159999999998	405.25482	1485.16604	-147.24212999999997	683.87598	1306.60445	250.28451	608.22119	1278.53896	262.35131	545.17552	1292.23275	236.31956000000002	783.93555	1343.61836	-45.55558000000001	728.88923	1331.82272	-104.66936	660.14912	1339.82206	-111.1773	7.050270000000018	1221.45891	143.85258000000007	352.92014	1067.03093	117.68524000000002	359.42808	1079.77564	45.28441000000002	370.81697	1111.63743	87.04369000000003	44.064169999999976	1238.1355	-145.61514999999991	276.0451	937.55005	-140.73418999999998	270.89298	927.51697	-67.79103999999997	303.70385	959.51434	-95.85652999999999	392.51011	1035.98263	86.50136000000002	225.74415000000002	704.2133	125.54900000000002	230.89627	700.01025	66.84196000000001	300.72104	885.75769	-103.72028999999999	59.79168999999999	601.44208	-126.63365999999998	63.45240999999999	599.67952	-67.65545999999998	179.2395	625.57569	90.02650000000001	338.68402	600.62859	97.75468	318.34671	607.67886	170.969	349.39501	601.03534	139.37836999999996	215.16875	622.18614	100.19515000000001	421.93142	590.32435	160.39358999999996	-24.40477000000001	572.02077	-86.90810999999997	86.36578	458.40299	-56.80888999999998	78.23085999999999	455.28461	-132.59926999999996	97.07676999999998	440.91291	-94.63628999999999	2.4404799999999893	545.85343	-88.67067999999998	148.59795	384.91751	-97.89025999999998	
831	13.833	0.0	1250.06673	7.654451098075493E-14	33.35319000000001	1328.83991	129.75205000000008	84.19646999999999	1339.95764	-94.77186999999994	0.6779100000000131	1389.17394	106.83867000000008	43.52184999999999	1398.66468	-82.56947999999991	-59.11377999999999	1199.76578	34.03110000000008	-37.827400000000004	1204.51115	-60.74076999999992	-56.40214	1270.40404	-11.795639999999915	-25.21827	1360.56612	-0.9490699999999136	19.6594	1470.65876	10.168660000000088	62.7745	1570.58275	18.84591000000009	304.51734	1660.74483	70.77384000000006	173.81622	1734.09473	38.36973000000008	115.92267	1664.40555	28.20107000000009	229.40487	1562.31224	58.029130000000066	215.5755	1781.2773	47.046980000000076	492.97642	1825.61263	42.43719000000006	397.93339	1802.83484	123.65085000000008	385.731	1799.44529	-20.472889999999936	378.40957	1856.38976	51.52119000000006	189.67932000000002	1752.39831	225.60857000000007	259.63967	1745.34805	-126.09132999999991	340.17542	1495.06354	231.43860000000006	333.66749	1490.047	168.93526000000006	425.18539	1503.74079	-145.34397999999996	396.17082	1477.1667	-96.12768999999996	500.5690200000001	1298.74069	243.91215000000003	533.65105	1327.89084	216.11783000000003	318.07555	1480.69184	216.11783000000005	627.33826	1352.16003	-137.07348	634.25294	1367.88755	-87.99276999999998	405.3904	1485.57279	-147.37771999999998	684.14715	1307.41794	250.28451	608.35677	1279.21687	262.21573	545.44669	1292.77508	236.04839000000004	784.3423	1344.70302	-45.96232000000001	729.29598	1332.63621	-104.94053	660.42029	1340.63555	-111.44847	5.6944500000000176	1219.42518	143.85258000000007	344.64963	1050.21875	118.36315000000003	352.37781	1063.77696	46.233490000000025	364.71578	1094.55409	88.53509000000003	44.74207999999998	1239.89807	-145.61514999999991	289.60331	949.88801	-141.95442999999997	284.72236	939.04145	-69.14685999999998	316.1774	972.6658	-96.80559999999998	387.35799	1020.93302	87.31486000000001	235.23490000000004	681.97783	123.65085000000002	240.79376	678.31712	64.94381000000001	311.83877	896.73984	-104.53377999999998	57.89354999999998	623.94871	-125.54899999999996	61.418679999999995	622.4573	-66.57079999999998	190.08607	602.93349	87.45044000000001	349.80175	580.29128	95.72094	329.05769	586.66364	168.93526	360.37715	580.56244	137.34463999999997	226.01532	600.08626	97.89026000000001	432.91356	570.80053	158.63102999999998	-27.52316000000001	598.73044	-86.09461999999996	77.68853	480.09613	-55.72422999999998	69.82476999999999	477.52007	-131.65018999999998	87.72159999999998	462.19929	-93.55162999999999	-2.0337300000000105	571.34286	-87.85717999999997	136.66673	404.03458	-96.67001999999998	
832	13.85	0.0	1250.06673	7.654451098075493E-14	33.89552000000001	1328.70433	129.75205000000008	83.65413999999998	1340.09322	-95.17861999999992	1.084660000000013	1389.03835	106.97426000000009	42.979519999999994	1398.80026	-82.56947999999991	-58.978199999999994	1199.76578	34.302260000000075	-38.098560000000006	1204.51115	-60.60518999999992	-56.53773	1270.40404	-11.388889999999915	-25.35385	1360.56612	-0.6779099999999136	19.6594	1470.65876	10.168660000000088	62.63892	1570.58275	18.574740000000087	304.51734	1660.88041	69.68919000000005	173.68064	1734.09473	37.42065000000009	115.92267	1664.40555	27.52316000000009	229.40487	1562.31224	57.215640000000064	215.5755	1781.2773	45.82674000000008	492.84084	1826.15496	40.40346000000006	398.20455	1803.37717	121.88828000000007	385.45984	1799.44529	-22.099879999999935	378.27399	1856.66093	49.62304000000007	190.22165000000004	1752.94064	224.5239200000001	259.36851	1745.21246	-127.17598999999991	340.44659	1495.3347	230.08278000000007	333.80307	1490.31816	167.71503000000007	425.18539	1503.87637	-145.75072999999998	396.3064	1477.57345	-96.12768999999996	500.5690200000001	1299.01186	243.64099000000002	533.65105	1328.02642	215.84666000000004	318.34671	1481.09858	214.89759000000006	627.47384	1352.56678	-137.34464	634.52411	1368.42988	-88.12834999999998	405.3904	1485.84395	-147.51329999999996	684.14715	1307.82469	250.14893	608.35677	1279.62362	262.08015	545.44669	1293.04624	235.77723000000003	784.61347	1345.38093	-46.09791000000001	729.43156	1333.31412	-105.21169	660.69145	1341.17788	-111.58405	4.067460000000017	1217.25587	143.7170000000001	334.48098	1031.77959	118.76990000000002	343.42939	1045.74454	46.91140000000002	356.9876	1075.43702	89.75533000000003	45.148829999999975	1241.79622	-145.75072999999992	303.43268	963.44622	-142.90350999999998	298.55173	951.92175	-70.09592999999998	328.65095	987.17308	-97.48350999999998	379.62981	1004.12084	87.85718000000001	240.92935000000003	659.20005	122.02387000000002	246.75938	656.08166	63.18125000000001	323.36325	909.34897	-105.07610999999999	58.57145999999999	646.7265	-124.73550999999998	61.961009999999995	645.64184	-65.75730999999998	196.59401	580.02011	85.28112	356.44527	558.73373	93.55162999999999	335.70122	564.42818	166.76595	367.02068	558.86931	135.17532999999997	232.52326	577.44406	95.58536	439.55709	549.64973	156.46170999999998	-27.92991000000001	625.30453	-85.68786999999996	72.12966	502.33159	-54.910739999999976	64.40148999999998	500.16227	-130.83669999999998	81.48482999999999	484.02801	-92.60255999999998	-3.5251300000000105	596.83229	-87.31485999999995	128.12506	423.82956	-95.58535999999998	
833	13.867	0.0	1250.06673	7.654451098075493E-14	34.84459000000001	1328.56875	129.4808800000001	82.97622999999999	1340.22881	-95.58535999999992	1.762570000000013	1389.03835	107.10984000000009	42.437189999999994	1398.80026	-82.70506999999992	-58.70703999999999	1199.6302	34.57343000000008	-38.369730000000004	1204.51115	-60.334019999999924	-56.67331	1270.40404	-11.117729999999915	-25.35385	1360.56612	-0.5423299999999136	19.6594	1470.65876	10.03307000000009	62.7745	1570.58275	18.168000000000088	304.7885	1661.01599	68.19778000000005	173.9518	1734.09473	36.20041000000008	116.05826	1664.40555	26.709670000000088	229.67603	1562.44783	56.26656000000006	215.71108	1781.2773	44.47092000000008	492.97642	1826.29054	37.827400000000054	398.6113	1803.64834	119.85455000000007	385.45984	1799.44529	-24.133609999999937	378.40957	1856.66093	47.453730000000064	191.17073000000002	1753.34739	223.3036800000001	259.23293	1744.9413	-128.53180999999992	340.71775	1495.3347	228.72696000000005	333.80307	1490.18258	166.22362000000007	425.0498	1503.46962	-146.02188999999998	396.17082	1477.43787	-96.39884999999995	500.16227000000003	1298.60511	243.23424000000003	533.37988	1327.61967	215.43992000000003	318.48229	1481.09858	213.40619000000007	627.47384	1352.56678	-137.48022	634.38853	1368.42988	-88.39950999999999	405.25482	1485.57279	-147.78445999999997	683.7404	1307.68911	250.01335	608.0856	1279.35246	261.80899	545.17552	1292.6395	235.37048000000001	784.47788	1345.38093	-46.23349000000002	729.43156	1333.17854	-105.34727	660.55587	1341.0423	-111.85521	2.3049000000000177	1215.22213	143.5814200000001	321.4651	1011.03553	118.90548000000001	332.0405	1025.40723	47.31814000000002	346.81895	1053.6083	90.56883000000003	45.41998999999998	1243.69437	-145.75072999999992	316.99089	978.36025	-143.58141999999998	312.65226	966.15786	-71.04500999999999	340.98892	1003.03619	-98.02583999999999	368.91882	984.86819	87.99277000000001	241.87842000000003	635.3376	120.80363000000001	247.84403	632.62596	61.96101000000001	335.02331	923.72067	-105.61843999999999	62.096589999999985	669.63987	-124.46433999999998	65.35055999999999	668.69079	-65.48613999999998	198.22099	555.88651	83.38298	358.20784	535.82036	90.97556999999999	337.59937	540.70131	164.32547	368.91882	535.54919	132.59926999999996	234.15024	553.58161	93.68721	441.59082	526.73636	153.61448999999996	-25.48943000000001	651.60745	-85.55228999999996	69.68919	524.97379	-54.23282999999997	62.096589999999985	522.80448	-130.15878999999998	78.50201999999999	506.26347	-91.92464999999999	-2.1693100000000105	622.32172	-87.04368999999996	122.70177999999999	444.16688	-94.63628999999999	
